<svg width="27" height="27" viewBox="0 0 27 27" fill="none" xmlns="http://www.w3.org/2000/svg">
<g id="cib:epic-games" clip-path="url(#clip0_204_1017)">
<path id="Vector" d="M3.98166 0C2.43506 0 1.86806 0.571219 1.86806 2.11359V20.7461C1.86806 20.9225 1.87734 21.0845 1.89084 21.2347C1.9305 21.573 1.9305 21.9029 2.24606 22.2716C2.27644 22.3155 2.59369 22.5484 2.59369 22.5484C2.76497 22.6319 2.88309 22.6935 3.07631 22.772L12.4546 26.7005C12.9381 26.9207 13.1456 27.0135 13.4966 27H13.5008C13.8561 27.0135 14.0636 26.9215 14.5471 26.7005L23.9203 22.772C24.1186 22.6935 24.2317 22.6311 24.4072 22.5484C24.4072 22.5484 24.7244 22.3062 24.7548 22.2716C25.0712 21.9029 25.0712 21.573 25.11 21.2347C25.1235 21.0853 25.1328 20.9233 25.1328 20.7512V2.11444C25.1328 0.572063 24.5616 0.00084375 23.0192 0.00084375L3.98166 0ZM19.0072 3.49734H19.7708C21.0457 3.49734 21.67 4.1175 21.67 5.41013V7.52372H20.1234V5.49281C20.1234 5.08022 19.9344 4.89122 19.5337 4.89122H19.2704C18.8578 4.89122 18.6688 5.08022 18.6688 5.49281V12.031C18.6688 12.4436 18.8578 12.6326 19.2704 12.6326H19.5649C19.9597 12.6326 20.1487 12.4436 20.1487 12.031V9.693H21.6953V12.1061C21.6953 13.3928 21.0634 14.0265 19.7843 14.0265H19.0072C17.7238 14.0265 17.0944 13.3886 17.0944 12.1061V5.42109C17.0944 4.13438 17.723 3.4965 19.0072 3.4965V3.49734ZM5.29538 3.58678H8.79778V5.02369H6.86813V7.94981H8.72775V9.38334H6.86813V12.5027H8.82478V13.9404H5.29538V3.58678ZM9.58838 3.58678H12.0589C13.3372 3.58678 13.97 4.22381 13.97 5.51053V8.262C13.97 9.54872 13.3363 10.1824 12.0589 10.1824H11.167V13.9396H9.58838V3.58678ZM14.6821 3.58678H16.2548V13.9404H14.6821V3.58678ZM11.162 4.97897V8.79272H11.8125C12.2082 8.79272 12.3972 8.60034 12.3972 8.18606V5.58478C12.3972 5.17219 12.2082 4.97813 11.8125 4.97813L11.162 4.97897ZM6.82425 16.4H7.05713L7.11028 16.4093H7.19466L7.23853 16.4228H7.28241L7.32206 16.4354L7.36594 16.4447L7.40053 16.454L7.479 16.4717L7.52372 16.4843L7.55409 16.4936L7.58869 16.5071L7.63256 16.5206L7.66294 16.5333L7.70766 16.551L7.74731 16.5687L7.78191 16.5898L7.82156 16.6075L7.85194 16.6286L7.89666 16.6514L7.93125 16.6725L7.96584 16.6902L8.00044 16.7164L8.03672 16.7392L8.06709 16.7653L8.17256 16.8455L8.14556 16.8801L8.11519 16.9104L8.08819 16.9417L8.05781 16.9763L8.03672 17.0066L8.00972 17.0378L7.97934 17.0682L7.95234 17.1028L7.93125 17.1332L7.90003 17.1695L7.87388 17.1998L7.8435 17.2344L7.8165 17.2657L7.79541 17.3002L7.76419 17.3306L7.73803 17.3669L7.70766 17.3973L7.68066 17.4277L7.65028 17.4066L7.61569 17.3753L7.57941 17.3542L7.51444 17.3104L7.47478 17.2876L7.4385 17.2665L7.39884 17.2437L7.36847 17.226L7.33388 17.2091L7.263 17.1821L7.21913 17.1745L7.18453 17.1653L7.14488 17.156L7.10016 17.1467L7.05628 17.1425H7.01241L6.96094 17.1332H6.87656L6.83269 17.1374H6.78881L6.74494 17.1509L6.71034 17.1602L6.67069 17.1737L6.63103 17.1813L6.59475 17.199L6.55088 17.2167L6.49013 17.2606L6.45384 17.2817L6.42347 17.3087L6.39309 17.3298L6.36188 17.3568L6.34078 17.3872L6.3045 17.4175L6.26063 17.4791L6.23953 17.5137L6.22181 17.5534L6.20072 17.5846L6.17794 17.6243L6.16444 17.6639L6.14756 17.6985L6.13406 17.7424L6.12984 17.7862L6.11719 17.8267L6.10791 17.8706V17.9145L6.10369 17.9584V18.0596L6.10791 18.1035V18.1381L6.11213 18.182L6.11972 18.2216L6.13322 18.2562L6.13744 18.3009L6.15094 18.3355L6.16359 18.3659L6.18131 18.4098L6.20409 18.4537L6.22097 18.4849L6.26484 18.5549L6.29184 18.5895L6.31294 18.6207L6.34922 18.6469L6.37031 18.6772L6.40069 18.7043L6.47156 18.7574L6.50194 18.7743L6.53653 18.7971L6.57703 18.8148L6.62091 18.8317L6.65128 18.8494L6.73903 18.8755L6.77869 18.8797L6.82256 18.8932L6.86644 18.8975H7.05544L7.10859 18.8932H7.14825L7.19297 18.8755L7.23684 18.8713L7.28072 18.8587L7.31531 18.8494L7.35497 18.8317L7.38956 18.8148L7.42922 18.7971L7.45622 18.7793L7.49081 18.7583V18.3667H6.87066V17.739H8.27213V19.1455L8.24175 19.1666L8.21138 19.1928L8.18016 19.2156L8.14556 19.2417L8.11097 19.2594L8.08059 19.2864L8.00972 19.3303L7.96584 19.3514L7.89581 19.3953L7.85109 19.413L7.8165 19.4299L7.77684 19.4476L7.68909 19.4822L7.6545 19.4999L7.57434 19.5261L7.53469 19.5353L7.49503 19.5488L7.45116 19.5623L7.41656 19.5699L7.28494 19.5969L7.24444 19.6012L7.15669 19.6104L7.10859 19.6147L7.06472 19.618L7.01663 19.6222H6.79725L6.75338 19.6147H6.7095L6.66563 19.6054H6.62597L6.58209 19.5919L6.45384 19.5657L6.41925 19.5522L6.37959 19.548L6.33572 19.5303L6.25556 19.5041L6.17709 19.4695L6.13322 19.4518L6.10284 19.4341L6.05897 19.4172L6.02775 19.3902L5.98388 19.3733L5.95772 19.3506L5.92313 19.3295L5.85225 19.2763L5.81766 19.2535L5.79066 19.2274L5.75606 19.2004L5.69869 19.1438L5.66831 19.1168L5.64216 19.0865L5.61094 19.0553L5.58984 19.0207L5.56284 18.9945L5.54175 18.9582L5.51475 18.9236L5.49366 18.8932L5.47088 18.8587L5.44978 18.8182L5.43206 18.7836L5.41434 18.7439L5.39747 18.7093L5.36288 18.6292L5.34938 18.5988L5.33166 18.5591L5.32238 18.5195L5.31478 18.4849L5.3055 18.441L5.292 18.4005L5.28272 18.3566L5.2785 18.322L5.27091 18.2782L5.26163 18.1997L5.25234 18.1119V17.8791L5.26163 17.8343V17.7905L5.27513 17.7466V17.7027L5.28778 17.6631L5.30128 17.6192L5.319 17.5407L5.33166 17.4968L5.34516 17.4572L5.39831 17.3382L5.41519 17.3036L5.43291 17.264L5.45569 17.2235L5.47256 17.1889L5.49534 17.1585L5.53922 17.0876L5.56538 17.053L5.59238 17.0227L5.61347 16.9881L5.67084 16.9307L5.697 16.8995L5.72822 16.8691L5.75438 16.8387L5.79066 16.8117L5.85141 16.7586L5.886 16.7324L5.92228 16.7096L5.95266 16.6835L5.98725 16.6607L6.02353 16.6438L6.06319 16.621L6.10706 16.5999L6.13744 16.5772L6.18131 16.5603L6.22097 16.5426L6.26063 16.5215L6.29691 16.5122L6.34078 16.4987L6.37538 16.481L6.41503 16.4734L6.45469 16.4599L6.49856 16.4506L6.53484 16.4371L6.57872 16.4278H6.62259L6.66225 16.4152H6.70613L6.75 16.4059H6.78966L6.82425 16.4ZM20.3116 16.4093H20.5445L20.5976 16.4185H20.6812L20.725 16.4312H20.7731L20.817 16.4447L20.8955 16.4624L20.9393 16.4717L20.979 16.4793L21.0237 16.4928L21.0634 16.5063L21.098 16.5156L21.1376 16.5282L21.1815 16.5417L21.2161 16.5594L21.26 16.5763L21.3005 16.594L21.3401 16.6168L21.3705 16.6337L21.4102 16.6565L21.4498 16.6733L21.4861 16.6961L21.5257 16.7223L21.5561 16.7451L21.627 16.7982L21.6616 16.8193L21.6346 16.8539L21.6135 16.8902L21.5873 16.9206L21.5603 16.9552L21.5392 16.9948L21.5165 17.0311L21.4903 17.0615L21.4633 17.0961L21.4422 17.1323L21.4152 17.1669L21.3941 17.1973L21.3671 17.2319L21.346 17.2724L21.319 17.307L21.2929 17.3374L21.2659 17.372L21.2448 17.4083L21.2102 17.3813L21.1697 17.3602L21.1393 17.3374L21.1047 17.3163L21.0651 17.2986L21.0288 17.2758L20.9891 17.2589L20.9587 17.2412L20.9149 17.2243L20.8837 17.2066L20.8491 17.1931L20.7706 17.1669L20.6828 17.1399L20.5512 17.1138L20.5073 17.1096L20.4272 17.1003H20.3352L20.2871 17.1096L20.2432 17.1188L20.2036 17.1281L20.169 17.145L20.1378 17.1627L20.1032 17.1931L20.077 17.2327L20.0593 17.2733V17.3779L20.0821 17.426L20.099 17.453L20.126 17.4791L20.1698 17.5019L20.2044 17.523L20.2441 17.5407L20.288 17.5576L20.3453 17.5711L20.3757 17.5846L20.412 17.5939L20.4559 17.6032L20.4905 17.6158L20.5301 17.6251L20.5782 17.6386L20.6221 17.6521L20.6702 17.6648L20.7183 17.674L20.7579 17.6875L20.806 17.7002L20.8499 17.7095L20.8896 17.7188L21.022 17.7584L21.0566 17.7719L21.1005 17.7854L21.1402 17.8023L21.184 17.8251L21.2718 17.8597L21.3114 17.8824L21.3823 17.9263L21.4473 17.9744L21.4878 18.0006L21.5182 18.0309L21.5485 18.0672L21.5798 18.0976L21.6008 18.128L21.6321 18.1718L21.6532 18.2031L21.6709 18.2469L21.6877 18.2731L21.7013 18.317L21.7148 18.3533L21.724 18.3929L21.7409 18.4807L21.7451 18.5245L21.7493 18.5642V18.6697L21.7451 18.7178L21.7358 18.8055L21.7266 18.8494L21.7139 18.889L21.7046 18.9329L21.6911 18.9768L21.6785 19.0164L21.6608 19.0477L21.643 19.0873L21.6219 19.1219L21.5949 19.1531L21.5511 19.2232L21.4979 19.2847L21.4675 19.3058L21.4329 19.3371L21.4059 19.3632L21.3713 19.3894L21.3368 19.4071L21.3022 19.4341L21.2617 19.4552L21.1832 19.4948L21.1393 19.5126L21.0997 19.5294L21.0558 19.5429L21.0161 19.5564L20.9798 19.5657L20.8921 19.5826L20.8617 19.5919L20.8178 19.6012H20.774L20.7343 19.6104H20.6904L20.6466 19.6197H20.3335L20.2019 19.6062L20.158 19.5969L20.1184 19.5927L20.0306 19.5758L19.9825 19.5666L19.9429 19.5573L19.899 19.5438L19.8543 19.5345L19.8146 19.5218L19.7708 19.5083L19.7269 19.4906L19.6923 19.478L19.6484 19.4645L19.6045 19.4468L19.5733 19.4299L19.5294 19.4164L19.4948 19.3936L19.451 19.3767L19.4164 19.3539L19.3852 19.3328L19.3413 19.3101L19.3109 19.2932L19.2763 19.2662L19.2417 19.2451L19.2054 19.2181L19.1751 19.1919L19.1405 19.1649L19.1093 19.1438L19.0747 19.1126L19.1017 19.078L19.132 19.0477L19.1582 19.0164L19.1894 18.9818L19.2105 18.9515L19.2375 18.9169L19.2679 18.8857L19.294 18.8553L19.3252 18.8207L19.3463 18.7895L19.3776 18.7591L19.4037 18.7245L19.4307 18.6933L19.4611 18.6587L19.4822 18.6283L19.5134 18.5971L19.5438 18.5625L19.5742 18.5895L19.6147 18.6157L19.645 18.6418L19.6889 18.6646L19.7193 18.6874L19.7589 18.7135L19.7952 18.7363L19.8349 18.7532L19.8652 18.776L19.9049 18.7886L19.9488 18.8063L19.9851 18.8241L20.0247 18.8367L20.0593 18.8544L20.1032 18.8679L20.1428 18.8806L20.1867 18.8941L20.2306 18.8983L20.2711 18.9118L20.315 18.916H20.3631L20.4027 18.9287H20.6398L20.6795 18.9211L20.7233 18.9118L20.7537 18.9076L20.79 18.8941L20.8204 18.8772L20.86 18.8502L20.8828 18.8198L20.8997 18.7852L20.9132 18.7447V18.6435L20.8955 18.6038L20.8744 18.5693L20.8474 18.5431L20.8077 18.5161L20.7773 18.5034L20.7377 18.4857L20.6938 18.468L20.6457 18.4469L20.6145 18.4376L20.5799 18.4283L20.536 18.4148L20.5057 18.4072L20.4618 18.3937L20.4179 18.3895L20.3732 18.3718L20.3293 18.3676L20.2812 18.3549L20.2416 18.3457L20.1977 18.3322L20.1538 18.3229L20.1099 18.3102L20.0703 18.2967L20.0264 18.2874L19.9918 18.2739L19.9117 18.2478L19.8678 18.2301L19.8239 18.2174L19.7362 18.1811L19.6965 18.16L19.6526 18.1373L19.6222 18.1162L19.5818 18.0934L19.5514 18.0723L19.5117 18.0495L19.4543 17.9921L19.424 17.966L19.3708 17.9044L19.348 17.874L19.3312 17.8436L19.3042 17.8031L19.2915 17.7727L19.251 17.6673L19.2434 17.6234L19.2341 17.5837V17.5441L19.2248 17.5002V17.3205L19.2341 17.2327L19.2434 17.1965L19.251 17.1568L19.2645 17.1222L19.2738 17.0783L19.2915 17.048L19.3084 17.0033L19.3261 16.9687L19.343 16.9248L19.3657 16.8944L19.3961 16.8598L19.4189 16.8235L19.4535 16.7932L19.4797 16.7628L19.5067 16.7265L19.5463 16.6961L19.5733 16.6733L19.6079 16.6472L19.6779 16.6033L19.7176 16.5805L19.7978 16.5409L19.8323 16.5282L19.872 16.5147L19.9159 16.497L19.9597 16.4843L19.991 16.4751L20.0306 16.4658L20.0652 16.4565L20.1049 16.4472L20.1487 16.4379L20.2365 16.4303L20.277 16.4261L20.3116 16.4093ZM9.91828 16.4396H10.7139L10.7502 16.5198L10.7671 16.5544L10.7806 16.5983L10.7983 16.6379L10.811 16.6725L10.8338 16.7122L10.8599 16.7923L10.8827 16.832L10.9173 16.9104L10.9266 16.945L10.9966 17.1037L11.0101 17.1433L11.0278 17.1796L11.0489 17.2193L11.0582 17.2589L11.081 17.3028L11.0886 17.3424L11.1291 17.4209L11.1459 17.4521L11.1637 17.496L11.1772 17.5399L11.1898 17.5702L11.2126 17.6141L11.2261 17.6504L11.243 17.6943L11.2565 17.7247L11.2742 17.7685L11.3138 17.847L11.3265 17.8867L11.3358 17.9272L11.3535 17.9668L11.3746 18.0014L11.3923 18.0453L11.41 18.0849L11.4227 18.1195L11.459 18.1997L11.4716 18.2393L11.4893 18.279L11.5028 18.3187L11.5197 18.3533L11.5425 18.3937L11.5594 18.4334L11.5771 18.468L11.5864 18.5119L11.621 18.5903L11.6387 18.6266L11.6513 18.6663L11.6876 18.7447L11.7087 18.7886L11.718 18.8232L11.7408 18.8679L11.7484 18.8983L11.7661 18.9422L11.7889 18.9861L11.8057 19.0164L11.8193 19.0603L11.837 19.0966L11.8496 19.1405L11.8724 19.1708L11.8986 19.2586L11.9163 19.2898L11.9332 19.3337L11.9559 19.3683L11.9737 19.4122L11.9813 19.4518L11.9948 19.4864L12.0125 19.5261L12.0336 19.5623H11.1552L11.1341 19.5261L11.1206 19.4864L11.1029 19.4468L11.086 19.4029L11.0768 19.3683L11.0405 19.2898L11.0278 19.2535L10.9932 19.1751L10.9797 19.1405L10.962 19.0966L10.9358 19.0164L10.9181 18.9818H9.69638L9.6795 19.0215L9.666 19.0578L9.64828 19.1017L9.63141 19.1413L9.62213 19.1759L9.60441 19.2198L9.58753 19.2544L9.57403 19.294L9.55631 19.3303L9.53944 19.3742L9.52594 19.4046L9.50822 19.4484L9.49556 19.4923L9.47784 19.5235L9.46434 19.5674H8.59444L8.60709 19.5269L8.64338 19.4484L8.65603 19.4046L8.66953 19.37L8.69231 19.3303L8.70919 19.2907L8.72691 19.2544L8.73619 19.2147L8.75306 19.1708L8.77584 19.1362L8.79272 19.0966L8.81972 19.0164L8.85938 18.938L8.87288 18.8983L8.88975 18.8637L8.90325 18.8232L8.95641 18.7051L8.97413 18.6612L8.98678 18.6266L9.00028 18.587L9.02306 18.5507L9.03994 18.5068L9.05344 18.4672L9.06694 18.4326L9.08381 18.3887L9.10659 18.3575L9.12009 18.3136L9.13697 18.279L9.15047 18.2393L9.16819 18.1955L9.18928 18.1609L9.20278 18.117L9.21966 18.0858L9.23316 18.0419L9.25088 17.998L9.26775 17.9677L9.28547 17.9238L9.29897 17.8875L9.31584 17.8436L9.32934 17.8132L9.35213 17.7694L9.369 17.7255L9.38672 17.6909L9.396 17.6513L9.41288 17.6108L9.43566 17.5711L9.45253 17.5365L9.46181 17.4926L9.47953 17.453L9.49725 17.4167L9.53184 17.3382L9.5445 17.3036L9.58078 17.2159L9.59766 17.1847L9.61538 17.1408L9.62888 17.1062L9.64153 17.0623L9.65925 17.0227L9.68203 16.9881L9.69891 16.9442L9.71241 16.913L9.72591 16.8691L9.74278 16.8345L9.76556 16.7948L9.77906 16.751L9.79172 16.7147L9.80944 16.6708L9.82631 16.6404L9.84909 16.5966L9.86259 16.5527L9.87525 16.5223L9.89297 16.4784L9.91828 16.4396ZM12.3888 16.4624H13.2587L13.2857 16.497L13.3296 16.5679L13.3507 16.6075L13.3734 16.6379L13.3945 16.6776L13.4173 16.7122L13.4384 16.7527L13.4612 16.7873L13.4823 16.8176L13.5051 16.8573L13.5262 16.8936L13.5574 16.9282L13.57 16.9627L13.597 17.0024L13.6181 17.0387L13.6451 17.0691L13.6628 17.1087L13.6839 17.1433L13.7109 17.1796L13.7236 17.2142L13.7548 17.2538L13.8198 17.3593L13.8375 17.3939L13.8637 17.4285L13.8864 17.4631L13.9075 17.5036L13.9742 17.6082L13.9953 17.6487L14.0181 17.6833L14.0442 17.6487L14.0619 17.604L14.0881 17.5736L14.1109 17.534L14.132 17.5036L14.1497 17.4597L14.1801 17.4285L14.2028 17.3888L14.2206 17.3585L14.2417 17.3222L14.2687 17.2825L14.2898 17.2522L14.3125 17.2083L14.3336 17.1779L14.3606 17.1374L14.3775 17.107L14.4003 17.0632L14.4214 17.037L14.4442 17.0007L14.4703 16.9568L14.4931 16.9265L14.51 16.8868L14.537 16.8556L14.5581 16.8117L14.5808 16.7856L14.607 16.751L14.6298 16.7071L14.6509 16.6759L14.6737 16.6362L14.6948 16.6058L14.7175 16.562L14.7437 16.5307L14.7614 16.4911L14.7842 16.4607H15.6676V19.5986H14.8407V17.7525L14.8196 17.7837L14.7926 17.8276L14.7715 17.8538L14.7445 17.8883L14.7277 17.9322L14.7007 17.9634L14.6796 17.9938L14.6526 18.0377L14.6087 18.0993L14.5825 18.1339L14.5598 18.1777L14.5336 18.209L14.5108 18.2393L14.4939 18.2832L14.4669 18.3136L14.4458 18.3448L14.4188 18.3887L14.3977 18.4191L14.3708 18.4537L14.3497 18.4933L14.3319 18.5245L14.3058 18.5591L14.283 18.5988L14.2568 18.6292L14.2298 18.6654L14.213 18.7L14.1902 18.7397L14.164 18.7709L14.137 18.8055L14.1202 18.8494L14.0889 18.8755L14.0721 18.9101L14.0451 18.9548L14.024 18.9852H14.0063L13.9801 18.9456L13.9573 18.9093L13.9362 18.8696L13.9134 18.8392L13.8873 18.7996L13.8645 18.765L13.8383 18.7287L13.8156 18.6941L13.7945 18.6545L13.7717 18.6241L13.7413 18.5836L13.7236 18.549L13.6974 18.5093L13.6747 18.479L13.6536 18.4393L13.6266 18.403L13.6055 18.3592L13.5785 18.3288L13.5574 18.2891L13.5346 18.2528L13.5135 18.2132L13.4865 18.1828L13.4654 18.1432L13.4384 18.1086L13.4215 18.0723L13.3945 18.0377L13.3734 17.998L13.3464 17.9677L13.3253 17.9272L13.2983 17.8926L13.2815 17.8529L13.2503 17.8225L13.2334 17.782L13.2064 17.7474V19.5978H12.3938V16.4902L12.3888 16.4624ZM16.2903 16.4624H18.765V17.1703H17.1121V17.6757H18.5971V18.344H17.1121V18.8797H18.7861V19.5919H16.2945V16.4894L16.2903 16.4624ZM10.3047 17.4243L10.2912 17.4639L10.2786 17.5002L10.2608 17.5441L10.2431 17.5837L10.2305 17.6234L10.1942 17.7019L10.1773 17.7458L10.1638 17.782L10.1503 17.8259L10.1334 17.8563L10.1199 17.9002L10.1022 17.944L10.0853 17.9753L10.0718 18.0191L10.055 18.0537L10.0415 18.0976L10.0187 18.1373L10.0094 18.1718L9.99253 18.2157L9.97481 18.2562L9.96131 18.2908L9.94444 18.3347H10.6692L10.6523 18.2908L10.6388 18.2512L10.6043 18.171L10.5908 18.1313L10.573 18.0968L10.5604 18.0529L10.5427 18.0132L10.5292 17.9736L10.5123 17.9373L10.4988 17.8976L10.4811 17.8538L10.4684 17.8192L10.4321 17.7407L10.4245 17.7002L10.4068 17.6605L10.3891 17.6167L10.3764 17.5863L10.3402 17.4985L10.3275 17.4589L10.3047 17.4243ZM9.01378 23.3002H18.0259L13.4258 24.8164L9.01378 23.3002Z" fill="#F0E9E9"/>
</g>
<defs>
<clipPath id="clip0_204_1017">
<rect width="27" height="27" fill="white"/>
</clipPath>
</defs>
</svg>
