<svg width="28" height="28" viewBox="0 0 28 28" fill="none" xmlns="http://www.w3.org/2000/svg">
<g id="cib:xbox" clip-path="url(#clip0_204_1013)">
<path id="Vector" d="M4.7771 24.5256C7.31964 26.7603 10.5905 27.99 13.9755 27.9837C17.5008 27.9837 20.7178 26.6831 23.1783 24.5256C25.362 22.3009 18.1516 14.3856 13.9755 11.2324C9.80388 14.3847 2.58907 22.3009 4.7771 24.5256ZM17.7742 7.75338C20.6855 11.2018 26.4905 19.7626 24.8528 22.7883C26.8625 20.3056 27.9565 17.2068 27.9509 14.0126C27.9509 10.1231 26.3639 6.60215 23.7933 4.0726C23.7933 4.0726 23.7609 4.04465 23.6981 4.02282C23.5925 3.98648 23.4812 3.96961 23.3696 3.97303C22.684 3.97303 21.0593 4.47702 17.7751 7.75338H17.7742ZM4.25302 4.02282C4.19013 4.04465 4.15781 4.0726 4.15257 4.0726C2.83445 5.37029 1.78825 6.91772 1.07511 8.62444C0.361984 10.3312 -0.00376301 12.1629 -0.000744406 14.0126C-0.000744406 17.3379 1.15921 20.3863 3.09743 22.7831C1.46929 19.7539 7.26472 11.1966 10.1803 7.7525C6.89612 4.47178 5.26711 3.97216 4.58057 3.97216C4.46842 3.96686 4.35644 3.98563 4.25215 4.02718L4.25302 4.02282ZM13.9755 4.16869C13.9755 4.16869 10.5454 2.16234 7.86566 2.06626C6.81489 2.03045 6.17377 2.40778 6.09515 2.46194C8.59326 0.784015 11.2495 0.0328369 13.9563 0.0328369H13.9747C16.6955 0.0328369 19.3377 0.784015 21.8542 2.46194C21.7764 2.40691 21.1388 2.02957 20.0837 2.06626C17.4039 2.16147 13.9738 4.16344 13.9738 4.16344L13.9755 4.16869Z" fill="#F0E9E9"/>
</g>
<defs>
<clipPath id="clip0_204_1013">
<rect width="27.9508" height="27.9508" fill="white" transform="translate(0 0.0328369)"/>
</clipPath>
</defs>
</svg>
