<svg width="25" height="33" viewBox="0 0 25 33" fill="none" xmlns="http://www.w3.org/2000/svg">
<path id="Vector" d="M13.2951 4.27632C14.8956 4.37309 16.4599 4.80259 17.8921 5.53847C19.2791 6.24666 20.5171 7.22464 21.5368 8.4175C22.5467 9.60953 23.3143 10.9686 23.8455 12.4937C24.3716 14.0188 24.5817 15.6243 24.4716 17.3113C24.4262 18.171 24.2887 19.023 24.0616 19.8521C23.8339 20.6612 23.5291 21.4455 23.1517 22.1939C22.5686 23.3441 21.9079 24.4515 21.1743 25.5081C20.4583 26.5395 19.6652 27.5127 18.8021 28.4191C17.947 29.3112 17.0311 30.1403 16.0612 30.9001C15.0955 31.6458 14.0816 32.3242 13.0265 32.9305L12.979 32.9676C12.9335 32.9914 12.8826 33.0025 12.8316 32.9995C12.7484 32.977 12.6734 32.9304 12.6154 32.8655C12.5777 32.8159 12.5519 32.758 12.5402 32.6964C12.5284 32.6348 12.531 32.5712 12.5478 32.5108C12.5623 32.4804 12.5799 32.4517 12.6003 32.4252C12.974 31.8828 13.2789 31.3187 13.5264 30.7279C13.7687 30.1319 13.9313 29.509 14.0212 28.8584C14.0193 28.8134 14.0005 28.771 13.9687 28.7398C13.954 28.7232 13.936 28.7099 13.9161 28.7007C13.8961 28.6915 13.8745 28.6865 13.8526 28.6862C13.5001 28.7346 13.1426 28.7614 12.7851 28.7717C12.4276 28.7882 12.0701 28.7718 11.7116 28.7233C10.1371 28.6241 8.59749 28.2071 7.18192 27.4962C5.76635 26.7854 4.50293 25.7949 3.46481 24.5821C2.44913 23.3851 1.66568 22.0018 1.15619 20.5059C0.628686 18.9602 0.415629 17.3209 0.530057 15.6883C0.577522 14.818 0.713858 13.9693 0.945124 13.1475C1.17639 12.3256 1.47633 11.5636 1.85504 10.8377C2.4438 9.65078 3.1073 8.53402 3.83241 7.49151C4.55751 6.449 5.34725 5.47763 6.1996 4.57536C7.90659 2.80219 9.85112 1.28502 11.9752 0.0691512L12.0226 0.037185C12.0677 0.0117891 12.1186 -0.0010154 12.1701 6.28893e-05C12.2543 0.0199112 12.3301 0.0669103 12.3862 0.134115C12.4427 0.201036 12.4726 0.287112 12.47 0.375409C12.4701 0.413483 12.4647 0.45136 12.4539 0.487806C12.4438 0.519772 12.4226 0.546583 12.4014 0.573393C12.0329 1.10478 11.7224 1.67565 11.4753 2.27585C11.2348 2.87302 11.0706 3.49925 10.9865 4.13918C10.9865 4.18764 11.0026 4.22476 11.034 4.25776C11.0653 4.29076 11.1077 4.31138 11.1501 4.31138C11.5025 4.26292 11.86 4.23611 12.2176 4.2258C12.5862 4.21548 12.9386 4.23095 13.2961 4.27426L13.2951 4.27632ZM12.2064 21.2793C12.8208 21.333 13.4394 21.2561 14.0232 21.0536C14.607 20.8511 15.1435 20.5274 15.5987 20.1027C16.5722 19.2272 17.0923 18.126 17.1822 16.805C17.2354 16.1744 17.1605 15.5393 16.9622 14.9396C16.7639 14.3399 16.4465 13.7884 16.0299 13.3197C15.6301 12.8384 15.1364 12.4475 14.5803 12.1719C14.0242 11.8964 13.418 11.7422 12.8003 11.7193C12.1828 11.6675 11.5615 11.7451 10.9745 11.9475C10.3875 12.1498 9.84719 12.4725 9.38682 12.8959C8.91492 13.3048 8.53178 13.8097 8.2619 14.3785C7.99201 14.9472 7.84133 15.5671 7.81947 16.1987C7.76836 16.8283 7.84317 17.4619 8.03935 18.0611C8.23553 18.6603 8.54898 19.2124 8.96065 19.6841C9.80189 20.6781 10.8855 21.2143 12.2064 21.2793Z" fill="#F0E9E9"/>
</svg>
