<svg width="40" height="30" viewBox="0 0 40 30" fill="none" xmlns="http://www.w3.org/2000/svg">
<path id="Vector" d="M23.8819 6.3425C23.9606 6.8745 23.9862 7.41296 23.9584 7.95L23.9597 7.93125C23.9597 10.8613 23.9509 13.7912 23.9672 16.7213C24.7885 17.1462 25.7564 17.4075 26.7821 17.4338H26.7909L26.8837 17.435C27.5135 17.4361 28.1336 17.2806 28.688 16.9825L28.6679 16.9925C29.256 16.6664 29.7496 16.1945 30.1011 15.6225L30.1111 15.605C30.4966 14.96 30.7586 14.2492 30.8835 13.5087L30.8885 13.4725C31.0346 12.6005 31.08 11.7148 31.0239 10.8325L31.0252 10.865C31.0116 9.49842 30.7162 8.14923 30.1575 6.90125L30.1826 6.965C29.862 6.29357 29.4262 5.68314 28.8948 5.16125L28.8936 5.16C28.4042 4.67881 27.8576 4.25903 27.2661 3.91L27.2272 3.88875C25.9179 3.15007 24.529 2.56133 23.087 2.13375L22.9415 2.09625C22.0011 1.79625 21.0545 1.50875 20.1053 1.23375C18.4464 0.765 16.78 0.315 15.0836 0V27.9912L21.4344 30C21.4394 22.155 21.4394 14.3104 21.4344 6.46625L21.4331 6.39125C21.4331 5.94125 21.5736 5.525 21.8143 5.1825L21.8093 5.18875C21.8966 5.0772 22.0128 4.9915 22.1454 4.94085C22.2779 4.89019 22.4218 4.8765 22.5616 4.90125L22.5566 4.9C22.85 4.95375 23.1083 5.07875 23.3202 5.2575L23.3177 5.255C23.6123 5.535 23.8155 5.90875 23.8769 6.3275L23.8782 6.3375L23.8819 6.3425ZM7.29835 22.9325C9.47756 22.1562 11.6555 21.3713 13.8385 20.6C13.8511 20.4516 13.8545 20.3026 13.8485 20.1537V16.9175C11.0875 17.8888 8.33153 18.8713 5.57053 19.845C4.89721 20.09 4.21385 20.3075 3.55432 20.5875C2.76473 20.9007 2.01036 21.2958 1.30364 21.7663L1.34753 21.7387C1.04605 21.9302 0.800077 22.1969 0.634082 22.5125L0.629067 22.5237C0.550922 22.69 0.507306 22.8702 0.500842 23.0537C0.494377 23.2371 0.525198 23.42 0.591451 23.5912L0.587689 23.5825C0.761976 23.985 1.03156 24.3187 1.3701 24.5637L1.37637 24.5688C1.96568 24.9913 2.65531 25.32 3.39884 25.5137L3.44273 25.5238C5.38371 26.1863 7.62059 26.5675 9.9465 26.5675C10.0932 26.5675 10.2399 26.5662 10.3866 26.5625H10.3653C11.576 26.5346 12.7822 26.4058 13.9714 26.1775L13.836 26.1987C13.8535 26.0162 13.8435 25.8325 13.846 25.65V22.9075C12.9131 23.24 11.9815 23.5788 11.0499 23.915C10.7099 24.0527 10.3588 24.1614 10.0004 24.24L9.95403 24.2488C9.39683 24.3643 8.8292 24.4226 8.26006 24.4225H8.21868C7.7071 24.423 7.19916 24.3367 6.71656 24.1675L6.74791 24.1775C6.56445 24.1189 6.41024 23.9928 6.31658 23.825L6.31407 23.8212C6.29408 23.7452 6.29632 23.665 6.32053 23.5901C6.34475 23.5153 6.38993 23.4489 6.45074 23.3988H6.452C6.68772 23.1925 6.96984 23.0312 7.27954 22.9338L7.29584 22.9288L7.29835 22.9325ZM38.8756 20.8325C38.3157 20.3712 37.6739 20.0188 36.9835 19.7938L36.9421 19.7825C36.5547 19.66 36.1785 19.5075 35.7911 19.39C33.9956 18.8288 31.9304 18.505 29.7901 18.505H29.6534H29.661C29.0315 18.5275 28.4021 18.545 27.7764 18.6175C25.8705 18.8237 24.1302 19.2225 22.4751 19.8L22.6406 19.75V23.55C24.9339 22.75 27.2222 21.9412 29.5143 21.14C30.261 20.8987 31.0414 20.7772 31.8264 20.78H31.8916H31.8878L31.963 20.7787C32.4796 20.7787 32.9762 20.8675 33.4376 21.03L33.4062 21.02C33.5877 21.0776 33.741 21.2006 33.8363 21.365L33.8388 21.3687C33.8596 21.466 33.8492 21.5673 33.8092 21.6583C33.7691 21.7494 33.7014 21.8256 33.6156 21.8762L33.6131 21.8775C33.2318 22.1302 32.8129 22.3213 32.3718 22.4438L32.3405 22.4513C29.1222 23.5963 25.9044 24.74 22.687 25.8825C22.6193 25.895 22.6456 25.9775 22.6393 26.025V29.5675C26.869 28.0517 31.0991 26.5371 35.3297 25.0237C36.1635 24.7512 36.8468 24.4775 37.5089 24.1675L37.3935 24.2162C38.0309 23.925 38.6087 23.5186 39.0975 23.0175L39.0988 23.0163C39.347 22.755 39.5 22.4012 39.5 22.0112V21.9963V21.9975C39.4802 21.772 39.4148 21.5528 39.3077 21.3533C39.2006 21.1537 39.054 20.9778 38.8768 20.8363L38.8731 20.8337L38.8756 20.8325Z" fill="#F0E9E9"/>
</svg>
