<svg width="30" height="29" viewBox="0 0 30 29" fill="none" xmlns="http://www.w3.org/2000/svg">
<path id="Vector" d="M29.5 14.5C29.5 22.5101 22.9984 29 14.9766 29C8.32298 29 2.72177 24.5389 1.00282 18.4524L6.56895 20.7502C6.94315 22.627 8.60948 24.0478 10.5974 24.0478C12.8893 24.0478 14.8012 22.1534 14.7018 19.7504L19.6423 16.2306C22.6885 16.3067 25.2435 13.8393 25.2435 10.7639C25.2435 7.74698 22.7879 5.29718 19.7651 5.29718C16.7423 5.29718 14.2867 7.75282 14.2867 10.7639V10.8341L10.8254 15.8448C9.91915 15.7921 9.03044 16.0435 8.28206 16.5522L0.5 13.3365C1.09637 5.87016 7.34657 0 14.9766 0C22.9984 0 29.5 6.48992 29.5 14.5ZM9.60343 22.0014L7.82016 21.2647C8.14786 21.9452 8.71367 22.4819 9.41048 22.7732C10.9833 23.428 12.7899 22.6796 13.4448 21.1127C13.7605 20.3526 13.7663 19.5165 13.4506 18.7565C13.1349 17.9964 12.5444 17.4 11.7843 17.0843C11.03 16.7685 10.2232 16.7802 9.50988 17.0492L11.3516 17.8093C12.5093 18.2887 13.0589 19.6159 12.5736 20.7736C12.0883 21.9371 10.7611 22.4808 9.60343 22.0014ZM19.7651 14.4065C17.7538 14.4065 16.1167 12.7694 16.1167 10.7639C16.1167 8.75847 17.7538 7.12137 19.7651 7.12137C21.7764 7.12137 23.4135 8.75847 23.4135 10.7639C23.4135 12.7694 21.7823 14.4065 19.7651 14.4065ZM19.771 13.4944C21.2853 13.4944 22.5131 12.2665 22.5131 10.7581C22.5131 9.24375 21.2853 8.02177 19.771 8.02177C18.2567 8.02177 17.0288 9.2496 17.0288 10.7581C17.0347 12.2665 18.2625 13.4944 19.771 13.4944Z" fill="#F0E9E9"/>
</svg>
