<svg width="129" height="104" viewBox="0 0 129 104" fill="none" xmlns="http://www.w3.org/2000/svg">
<g id="Black and White Collection 19">
<g id="Group" opacity="0.1">
<path id="Vector" opacity="0.1" d="M128.12 100.12V103.12H125.12" stroke="#20263C" stroke-miterlimit="10"/>
<path id="Vector_2" opacity="0.1" d="M119.35 103.12H6.88" stroke="#20263C" stroke-miterlimit="10" stroke-dasharray="5.77 5.77"/>
<path id="Vector_3" opacity="0.1" d="M4 103.12H1V100.12" stroke="#20263C" stroke-miterlimit="10"/>
<path id="Vector_4" opacity="0.1" d="M1 94.35V-18.12" stroke="#20263C" stroke-miterlimit="10" stroke-dasharray="5.77 5.77"/>
<path id="Vector_5" opacity="0.1" d="M128.12 -15.24V97.24" stroke="#20263C" stroke-miterlimit="10" stroke-dasharray="5.77 5.77"/>
</g>
<path id="Vector_6" d="M59.6899 39.59C59.6899 40.5675 59.9799 41.523 60.5232 42.3356C61.0664 43.1482 61.8386 43.7813 62.7418 44.1549C63.6451 44.5285 64.6388 44.6258 65.5974 44.4344C66.5559 44.2429 67.4361 43.7715 68.1266 43.0796C68.8171 42.3877 69.2868 41.5066 69.4762 40.5476C69.6657 39.5887 69.5665 38.5951 69.191 37.6926C68.8156 36.7901 68.1809 36.0193 67.3672 35.4777C66.5535 34.9361 65.5974 34.6481 64.6199 34.65C63.3115 34.6527 62.0576 35.1743 61.1333 36.1005C60.209 37.0266 59.6899 38.2816 59.6899 39.59Z" fill="white"/>
<path id="Vector_7" d="M64.6199 55.0299C63.6429 55.0299 62.6878 55.3196 61.8754 55.8624C61.063 56.4053 60.4299 57.1768 60.056 58.0794C59.6821 58.9821 59.5842 59.9754 59.7749 60.9337C59.9655 61.8919 60.436 62.7721 61.1268 63.463C61.8177 64.1539 62.6979 64.6244 63.6562 64.815C64.6145 65.0056 65.6077 64.9078 66.5104 64.5339C67.4131 64.16 68.1846 63.5268 68.7274 62.7144C69.2702 61.902 69.5599 60.9469 69.5599 59.9699C69.5599 58.6597 69.0395 57.4032 68.113 56.4768C67.1866 55.5504 65.9301 55.0299 64.6199 55.0299Z" fill="white"/>
<path id="Vector_8" d="M79.78 34.65C78.8029 34.65 77.8478 34.9397 77.0355 35.4826C76.2231 36.0254 75.5899 36.7969 75.216 37.6996C74.8421 38.6022 74.7443 39.5955 74.9349 40.5538C75.1255 41.512 75.596 42.3923 76.2869 43.0831C76.9777 43.774 77.858 44.2445 78.8162 44.4351C79.7745 44.6257 80.7678 44.5279 81.6704 44.154C82.5731 43.7801 83.3446 43.1469 83.8874 42.3345C84.4302 41.5222 84.72 40.5671 84.72 39.59C84.72 38.2799 84.1995 37.0233 83.2731 36.0969C82.3466 35.1705 81.0901 34.65 79.78 34.65Z" fill="white"/>
<path id="Vector_9" d="M64.6199 23.88C65.5974 23.882 66.5535 23.5939 67.3672 23.0523C68.1809 22.5107 68.8156 21.7399 69.191 20.8374C69.5665 19.9349 69.6657 18.9413 69.4762 17.9824C69.2868 17.0235 68.8171 16.1423 68.1266 15.4504C67.4361 14.7586 66.5559 14.2871 65.5974 14.0957C64.6388 13.9042 63.6451 14.0015 62.7418 14.3751C61.8386 14.7487 61.0664 15.3818 60.5232 16.1944C59.9799 17.007 59.6899 17.9625 59.6899 18.94C59.6899 20.2484 60.209 21.5034 61.1333 22.4296C62.0576 23.3557 63.3115 23.8773 64.6199 23.88Z" fill="white"/>
<path id="Vector_10" d="M54.3 39.02C54.3 38.0429 54.0103 37.0878 53.4675 36.2754C52.9247 35.4631 52.1532 34.8299 51.2505 34.456C50.3478 34.0821 49.3546 33.9843 48.3963 34.1749C47.438 34.3655 46.5578 34.836 45.8669 35.5269C45.1761 36.2177 44.7056 37.0979 44.515 38.0562C44.3244 39.0145 44.4222 40.0078 44.7961 40.9104C45.17 41.8131 45.8032 42.5846 46.6155 43.1274C47.4279 43.6702 48.383 43.96 49.36 43.96C50.6702 43.96 51.9267 43.4395 52.8532 42.5131C53.7796 41.5866 54.3 40.3301 54.3 39.02Z" fill="white"/>
<path id="Vector_11" d="M75.86 46.32C74.0928 44.542 73.1009 42.1369 73.1009 39.63C73.1009 37.1231 74.0928 34.718 75.86 32.94C76.549 32.2483 77.0175 31.3681 77.2066 30.4104C77.3956 29.4526 77.2966 28.4604 76.9221 27.5588C76.5477 26.6573 75.9145 25.8869 75.1025 25.345C74.2906 24.803 73.3363 24.5138 72.36 24.5138C71.3838 24.5138 70.4295 24.803 69.6176 25.345C68.8056 25.8869 68.1724 26.6573 67.798 27.5588C67.4235 28.4604 67.3245 29.4526 67.5135 30.4104C67.7026 31.3681 68.1711 32.2483 68.86 32.94C69.7477 33.8195 70.4524 34.8663 70.9333 36.0197C71.4141 37.1731 71.6617 38.4104 71.6617 39.66C71.6617 40.9096 71.4141 42.1469 70.9333 43.3003C70.4524 44.4537 69.7477 45.5004 68.86 46.38C68.1711 47.0716 67.7026 47.9519 67.5135 48.9096C67.3245 49.8674 67.4235 50.8596 67.798 51.7612C68.1724 52.6627 68.8056 53.4331 69.6176 53.975C70.4295 54.517 71.3838 54.8062 72.36 54.8062C73.3363 54.8062 74.2906 54.517 75.1025 53.975C75.9145 53.4331 76.5477 52.6627 76.9221 51.7612C77.2966 50.8596 77.3956 49.8674 77.2066 48.9096C77.0175 47.9519 76.549 47.0716 75.86 46.38V46.32Z" fill="white"/>
<path id="Vector_12" d="M61.64 49.2C61.6347 47.903 61.1255 46.6587 60.22 45.73C58.4528 43.952 57.4609 41.5469 57.4609 39.04C57.4609 36.5331 58.4528 34.1281 60.22 32.35C60.909 31.6584 61.3775 30.7781 61.5665 29.8204C61.7556 28.8627 61.6566 27.8704 61.2821 26.9689C60.9077 26.0673 60.2745 25.297 59.4625 24.755C58.6506 24.2131 57.6962 23.9238 56.72 23.9238C55.7438 23.9238 54.7895 24.2131 53.9775 24.755C53.1656 25.297 52.5324 26.0673 52.1579 26.9689C51.7835 27.8704 51.6845 28.8627 51.8735 29.8204C52.0626 30.7781 52.5311 31.6584 53.22 32.35C54.1062 33.2294 54.8096 34.2755 55.2896 35.428C55.7696 36.5805 56.0167 37.8166 56.0167 39.065C56.0167 40.3135 55.7696 41.5496 55.2896 42.7021C54.8096 43.8546 54.1062 44.9007 53.22 45.78C52.6513 46.3576 52.2334 47.0663 52.0033 47.8436C51.7732 48.6208 51.7378 49.4427 51.9004 50.2369C52.063 51.031 52.4185 51.7729 52.9356 52.3972C53.4527 53.0215 54.1154 53.5089 54.8654 53.8165C55.6154 54.1241 56.4295 54.2425 57.236 54.1611C58.0425 54.0797 58.8166 53.8011 59.49 53.3498C60.1634 52.8986 60.7154 52.2886 61.0973 51.5736C61.4793 50.8586 61.6794 50.0606 61.68 49.25L61.64 49.2Z" fill="white"/>
</g>
</svg>
