<svg width="28" height="29" viewBox="0 0 28 29" fill="none" xmlns="http://www.w3.org/2000/svg">
<path id="Vector" d="M28 14.486C27.684 -0.367892 7.88908 -5.90852 0.264271 8.01556C0.605734 8.26567 1.06344 8.59101 1.4049 8.82753C0.842249 10.0041 0.444094 11.2521 0.221588 12.5367C0.0747321 13.3624 0.000586396 14.1993 0 15.0379C0 22.7407 6.27621 29 14.0045 29C21.7383 29 28 22.7507 28 15.0379V14.486ZM3.45187 16.9735C3.26751 18.4842 3.38557 18.9518 3.38557 19.1349L3.04502 19.2536C2.91788 19.0071 2.60093 18.1299 2.45381 16.9491C2.0842 12.4569 5.15919 8.41157 9.84613 7.64672C14.1362 7.01962 18.2474 9.68119 19.2028 13.4003L18.8622 13.519C18.7578 13.4148 18.5871 13.113 17.9296 12.4569C12.7458 7.28333 4.60522 9.65219 3.45096 16.9781L3.45187 16.9735ZM16.7762 19.4892C16.4256 19.9953 15.957 20.4088 15.4108 20.694C14.8645 20.9793 14.2569 21.1278 13.6404 21.1268C13.1382 21.1281 12.6406 21.0303 12.1764 20.8392C11.7122 20.648 11.2904 20.3671 10.9352 20.0128C10.5801 19.6584 10.2987 19.2375 10.1071 18.7743C9.91552 18.311 9.81757 17.8145 9.81889 17.3134C9.8224 16.3521 10.1891 15.4275 10.8458 14.7241C11.5025 14.0208 12.4009 13.5904 13.3616 13.519C14.5957 13.4674 15.7491 14.1316 16.2894 15.2082C16.5784 15.7851 16.6808 16.4372 16.5825 17.0747C16.4843 17.7121 16.1902 18.3034 15.7409 18.767C16.0942 19.0171 16.4356 19.2536 16.7762 19.4892ZM24.7416 19.636C22.7218 24.2043 18.5598 26.603 14.1235 26.5369C5.60418 26.1164 3.12675 16.3084 8.82084 12.7732L9.07148 13.0188C8.97704 13.152 8.63557 13.4166 8.11157 14.4497C7.49676 15.7048 7.29787 16.9654 7.37779 17.7493C7.82187 24.6012 17.4482 26.004 20.7539 19.2164C24.9686 9.93312 13.782 0.487581 3.85872 7.70472L3.63622 7.4827C6.24805 3.39655 11.3555 1.57414 16.2231 2.7921C23.6672 4.66526 27.6694 12.4062 24.7416 19.6369V19.636Z" fill="#F0E9E9"/>
</svg>
